<svg xmlns="http://www.w3.org/2000/svg" xmlns:xlink="http://www.w3.org/1999/xlink" version="1.1" x="0px" y="0px" viewBox="0 0 823.6 159.5" enable-background="new 0 0 823.6 159.5" xml:space="preserve"><style>.style0{fill:	#12100B;}</style><g><g><path d="M43.8 59.3C47.4 52 52 46.8 57.6 43.9c5.6-2.9 12.4-4.4 20.3-4.4c8.3 0 15.4 1.6 21.3 4.9c5.9 3.2 10.7 7.5 14.3 12.9 c3.7 5.4 6.4 11.5 8.1 18.4c1.7 6.9 2.6 14.1 2.6 21.6c0 6-0.6 12.5-1.7 19.3c-1.2 6.8-3.4 13.9-6.9 21.2c-0.4 0.9-1.5 2.5-3.1 5 c-1.7 2.4-4 4.9-7.1 7.3c-3.1 2.4-6.9 4.6-11.4 6.6c-4.5 1.9-9.9 2.9-16.1 2.9c-2.9 0-6-0.3-9.3-0.9c-3.3-0.6-6.5-1.7-9.7-3.3 c-3.2-1.7-6.2-3.9-9.2-6.7c-2.9-2.8-5.6-6.4-7.9-10.9v19.2H0v-18.3h15.1V18.3H0V0h43.8V59.3z M68.8 58.6c-4.6 0-8.8 1.5-12.6 4.4 c-3.8 2.9-6.6 6.4-8.5 10.5c-1.7 3.9-2.9 7.9-3.6 12.2c-0.6 4.2-1 8.4-1 12.6c0 4.3 0.3 8.9 1 13.8c0.6 4.9 1.9 9.4 3.8 13.6 c1.9 4.2 4.5 7.6 8 10.3c3.4 2.7 7.9 4.1 13.4 4.1c5.3 0 9.6-1.3 12.8-4c3.2-2.7 5.7-6 7.5-9.9c1.8-4 3-8.3 3.6-13 c0.6-4.7 0.9-9.2 0.9-13.4c0-4.2-0.3-8.7-0.9-13.5c-0.6-4.8-1.8-9.3-3.7-13.4c-1.9-4.1-4.5-7.5-7.8-10.2 C78.4 60 74.1 58.6 68.8 58.6z"/><path d="M218.6 137.7c-2.9 7.3-7.4 12.8-13.5 16.4c-6.1 3.6-13 5.4-20.8 5.4c-8.8 0-16-2.1-21.6-6.4c-5.6-4.2-9.4-9.4-11.4-15.4 c-0.7-6.3-1.2-10.9-1.3-13.7c-0.1-2.8-0.2-5-0.2-6.6V60.6h-14.7V42.3h43.3v68.3c0 3.3 0.1 6.7 0.2 10.2c0.1 3.5 1 6.8 2.6 9.8 c1.3 2.7 3.3 4.7 6 6c2.7 1.3 5.5 1.9 8.4 1.9c4.6 0 8.4-1.4 11.4-4.3c3-2.9 5.3-6.3 6.9-10.3c1.4-3.7 2.2-7.8 2.4-12.3 c0.1-4.5 0.2-8.6 0.2-12.5V60.6h-15.5V42.3h44.2v96.4h15.1v18.3h-41.8V137.7z"/><path d="M276.4 156.9v-22.2l60.6-75.2h-36.9v18.3h-22V42.3h90.8v21.1l-61.4 76.3h39.4v-21.1h22v38.4H276.4z"/><path d="M388.2 156.9v-22.2l60.6-75.2h-36.9v18.3h-22V42.3h90.8v21.1l-61.4 76.3h39.4v-21.1h22v38.4H388.2z"/><path d="M538.7 66.6c2.3-10.1 6.7-17.2 13.3-21.4c6.5-4.2 14.8-5.9 24.9-4.9v28c-1.6-0.4-3.2-0.8-5-1.2c-1.7-0.4-3.4-0.5-5.2-0.5 c-5.3 0-10.1 1.5-14.3 4.4c-4.2 2.9-7.3 6.9-9.2 11.7c-1.4 3.9-2.3 8.2-2.5 13c-0.2 4.8-0.3 9.2-0.3 13.3v29.5h18.3v18.3h-62.1 v-18.3h15.1v-78h-15.1V42.3h42V66.6z"/></g></g><g><polygon points="680.8,72.8 660.4,37.5 680.8,2.1 721.6,2.1 742,37.5 721.6,72.8" class="style0"/><polygon points="762.4,72.8 742,37.5 762.4,2.1 803.2,2.1 823.6,37.5 803.2,72.8" class="style0"/><polygon points="673.4,157 653,121.7 673.4,86.4 714.2,86.4 734.6,121.7 714.2,157" class="style0"/><polygon points="762.4,143.6 742,108.3 762.4,73 803.2,73 823.6,108.3 803.2,143.6" class="style0"/></g></svg>